<svg width="20" height="16" viewBox="0 0 20 16" fill="none" xmlns="http://www.w3.org/2000/svg">
<path d="M0.31841 8.00005C0.31841 8.39813 0.641486 8.7212 1.03956 8.7212H16.6059L11.1059 14.2212C10.8242 14.5029 10.8242 14.9597 11.1059 15.2414C11.2463 15.3818 11.4309 15.4529 11.6155 15.4529C11.8002 15.4529 11.9848 15.3827 12.1252 15.2414L18.856 8.51063C18.9223 8.44429 18.9751 8.36458 19.0116 8.27612C19.0847 8.10016 19.0847 7.90112 19.0116 7.72516C18.9751 7.6367 18.9223 7.55675 18.856 7.49041L12.1252 0.759638C11.8435 0.477907 11.3867 0.477907 11.105 0.759638C10.8232 1.04137 10.8232 1.49813 11.105 1.77986L16.6049 7.27984H1.03956C0.641486 7.27887 0.31841 7.60197 0.31841 8.00005Z" fill="black"/>
</svg>
