<svg width="20" height="16" viewBox="0 0 20 16" fill="none" xmlns="http://www.w3.org/2000/svg">
<path d="M19.7489 8.00027C19.7489 8.41427 19.4129 8.75027 18.9989 8.75027H2.80993L8.5299 14.4702C8.8229 14.7632 8.8229 15.2383 8.5299 15.5313C8.3839 15.6773 8.19187 15.7512 7.99987 15.7512C7.80787 15.7512 7.61584 15.6783 7.46984 15.5313L0.469842 8.53127C0.400842 8.46227 0.345977 8.37938 0.307977 8.28738C0.231977 8.10438 0.231977 7.89738 0.307977 7.71438C0.345977 7.62238 0.400842 7.53924 0.469842 7.47024L7.46984 0.470238C7.76284 0.177238 8.23788 0.177238 8.53088 0.470238C8.82388 0.763238 8.82388 1.23827 8.53088 1.53127L2.81091 7.25124H18.9989C19.4129 7.25024 19.7489 7.58627 19.7489 8.00027Z" fill="black"/>
</svg>
