<svg width="47" height="20" viewBox="0 0 47 20" fill="none" xmlns="http://www.w3.org/2000/svg">
<g clip-path="url(#clip0_185_3676)">
<path d="M22.047 3.44046V8.13494H24.8913C25.5689 8.13494 26.129 7.9037 26.5716 7.4399C27.0272 6.97742 27.2543 6.42559 27.2543 5.78704C27.2543 5.1485 27.0272 4.61638 26.5716 4.15258C26.1277 3.67695 25.5676 3.43914 24.8913 3.43914H22.047V3.44046ZM22.047 9.7878V15.2338H20.3486V1.7876H24.8539C25.9986 1.7876 26.9691 2.17651 27.7705 2.95169C28.5849 3.72688 28.9901 4.67287 28.9901 5.78704C28.9901 6.90121 28.5849 7.87874 27.7705 8.64079C26.9833 9.40546 26.0102 9.78649 24.8539 9.78649H22.047V9.7878Z" fill="black"/>
<path d="M30.707 12.416C30.707 12.8679 30.8941 13.2424 31.2709 13.5433C31.6465 13.8428 32.0866 13.9939 32.5912 13.9939C33.3061 13.9939 33.9411 13.7246 34.5012 13.1872C35.0612 12.6485 35.3413 12.0165 35.3413 11.2913C34.8122 10.8643 34.0727 10.6527 33.1254 10.6527C32.4363 10.6527 31.8607 10.8222 31.4 11.1599C30.9393 11.4976 30.707 11.9154 30.707 12.416ZM32.9048 5.73096C34.1605 5.73096 35.1516 6.07125 35.8782 6.75447C36.6047 7.43768 36.9661 8.37185 36.9661 9.56091V15.2329H35.3413V13.9558H35.2677C34.5657 15.0069 33.6313 15.5325 32.4621 15.5325C31.4645 15.5325 30.6295 15.2329 29.9597 14.6325C29.2887 14.0307 28.9531 13.2805 28.9531 12.3779C28.9531 11.4266 29.3054 10.6698 30.0139 10.1075C30.7225 9.54383 31.6671 9.26266 32.848 9.26266C33.8572 9.26266 34.6883 9.45055 35.34 9.82631V9.43215C35.34 8.83171 35.1064 8.32192 34.6392 7.9028C34.1708 7.48236 33.6249 7.27345 32.9964 7.27345C32.0478 7.27345 31.298 7.67944 30.7444 8.49404L29.2474 7.53623C30.0733 6.33403 31.2916 5.73358 32.9048 5.73358" fill="black"/>
<path d="M46.2911 6.03174L40.6218 19.2888H38.868L40.9728 14.6508L37.2432 6.03174H39.0899L41.7859 12.6419H41.822L44.4444 6.03174H46.2911Z" fill="black"/>
<path d="M15.1828 8.61302C15.1828 8.06908 15.1376 7.54353 15.0525 7.04163H7.88867V10.0176H11.9913C11.8158 10.9872 11.2828 11.8123 10.4749 12.3655V14.2982H12.9244C14.3581 12.9528 15.1841 10.9649 15.1841 8.61434" fill="#4285F4"/>
<path d="M7.88753 16.1641C9.9382 16.1641 11.6637 15.4796 12.9232 14.2984L10.4738 12.3657C9.79237 12.8321 8.9148 13.1054 7.88753 13.1054C5.90656 13.1054 4.22498 11.7469 3.6223 9.91663H1.10059V11.9072C2.35112 14.4311 4.92058 16.1654 7.88882 16.1654" fill="#34A853"/>
<path d="M3.62319 9.91526C3.46962 9.44883 3.38444 8.95087 3.38444 8.43714C3.38444 7.92342 3.46832 7.42546 3.62319 6.95903V4.96851H1.10018C0.582678 6.01172 0.291016 7.18896 0.291016 8.43714C0.291016 9.68533 0.582678 10.8639 1.10018 11.9058L3.62319 9.91526Z" fill="#FA9805"/>
<path d="M7.88753 3.76894C9.00643 3.76894 10.0105 4.16048 10.8016 4.92778L12.9697 2.7231C11.6533 1.47754 9.93691 0.711548 7.88753 0.711548C4.92058 0.711548 2.35112 2.44455 1.10059 4.96851L3.62359 6.95904C4.22498 5.12881 5.90656 3.77026 7.88882 3.77026" fill="#E94235"/>
</g>
<defs>
<clipPath id="clip0_185_3676">
<rect width="46" height="18.5769" fill="white" transform="translate(0.291016 0.711548)"/>
</clipPath>
</defs>
</svg>
