<svg width="43" height="18" viewBox="0 0 43 18" fill="none" xmlns="http://www.w3.org/2000/svg">
<path d="M20.5115 2.66822V6.92441H23.0903C23.7045 6.92441 24.2123 6.71475 24.6137 6.29426C25.0267 5.87495 25.2326 5.37464 25.2326 4.79572C25.2326 4.21679 25.0267 3.73435 24.6137 3.31385C24.2112 2.88264 23.7034 2.66703 23.0903 2.66703H20.5115V2.66822ZM20.5115 8.42295V13.3605H18.9717V1.16968H23.0563C24.0942 1.16968 24.974 1.52228 25.7006 2.22509C26.4389 2.9279 26.8063 3.78557 26.8063 4.79572C26.8063 5.80586 26.4389 6.69212 25.7006 7.38302C24.9869 8.0763 24.1047 8.42176 23.0563 8.42176H20.5115V8.42295Z" fill="white"/>
<path d="M28.3626 10.8048C28.3626 11.2145 28.5322 11.554 28.8739 11.8268C29.2144 12.0984 29.6133 12.2354 30.0708 12.2354C30.719 12.2354 31.2947 11.9912 31.8025 11.504C32.3103 11.0156 32.5642 10.4426 32.5642 9.78509C32.0845 9.39795 31.414 9.20616 30.5552 9.20616C29.9304 9.20616 29.4086 9.35983 28.9909 9.66597C28.5732 9.97211 28.3626 10.3509 28.3626 10.8048ZM30.3552 4.7439C31.4936 4.7439 32.3922 5.05242 33.0509 5.67185C33.7097 6.29128 34.0373 7.13823 34.0373 8.21627V13.3587H32.5642V12.2009H32.4975C31.861 13.1538 31.0139 13.6303 29.9538 13.6303C29.0494 13.6303 28.2924 13.3587 27.6851 12.8143C27.0767 12.2688 26.7725 11.5886 26.7725 10.7702C26.7725 9.90779 27.0919 9.22165 27.7342 8.71181C28.3766 8.20078 29.2331 7.94587 30.3037 7.94587C31.2186 7.94587 31.9722 8.11621 32.563 8.45689V8.09953C32.563 7.55515 32.3513 7.09296 31.9277 6.71296C31.503 6.33178 31.008 6.14237 30.4382 6.14237C29.5782 6.14237 28.8984 6.51046 28.3965 7.24901L27.0392 6.38062C27.7881 5.29066 28.8926 4.74628 30.3552 4.74628" fill="white"/>
<path d="M42.4913 5.01733L37.3513 17.0366H35.7612L37.6695 12.8317L34.2881 5.01733H35.9624L38.4067 11.0103H38.4394L40.817 5.01733H42.4913Z" fill="white"/>
<path d="M14.2869 7.35803C14.2869 6.86487 14.246 6.38839 14.1688 5.93335H7.67383V8.63144H11.3934C11.2343 9.51055 10.7511 10.2586 10.0186 10.7601V12.5124H12.2394C13.5393 11.2926 14.2881 9.4903 14.2881 7.35923" fill="#4285F4"/>
<path d="M7.67282 14.204C9.53203 14.204 11.0964 13.5834 12.2384 12.5125L10.0176 10.7602C9.39981 11.1831 8.60418 11.4309 7.67282 11.4309C5.87679 11.4309 4.35222 10.1991 3.80581 8.53979H1.51953V10.3445C2.65331 12.6328 4.98288 14.2052 7.67399 14.2052" fill="#34A853"/>
<path d="M3.80622 8.53837C3.66699 8.11549 3.58976 7.66402 3.58976 7.19826C3.58976 6.73249 3.66582 6.28103 3.80622 5.85815V4.05347H1.51878C1.04959 4.99929 0.785156 6.06661 0.785156 7.19826C0.785156 8.32991 1.04959 9.39842 1.51878 10.343L3.80622 8.53837Z" fill="#FA9805"/>
<path d="M7.67282 2.96603C8.68725 2.96603 9.59755 3.32101 10.3148 4.01668L12.2805 2.01783C11.087 0.888566 9.53086 0.194092 7.67282 0.194092C4.98288 0.194092 2.65331 1.7653 1.51953 4.05361L3.80698 5.85829C4.35222 4.19893 5.87679 2.96723 7.67399 2.96723" fill="#E94235"/>
</svg>
