<svg width="18" height="18" viewBox="0 0 18 18" fill="none" xmlns="http://www.w3.org/2000/svg">
<path d="M14.6753 17.1411H3.32377C1.75514 17.1411 0.473633 15.8596 0.473633 14.291V2.93949C0.473633 1.37087 1.75514 0.0893555 3.32377 0.0893555H14.6753C16.2439 0.0893555 17.5254 1.37087 17.5254 2.93949V14.291C17.5254 15.8666 16.2509 17.1411 14.6753 17.1411Z" fill="white"/>
<path d="M9.00272 12.9957C7.83325 12.9957 6.73381 12.5405 5.90749 11.7142C5.08116 10.8878 4.62598 9.78839 4.62598 8.61893C4.62598 7.44946 5.08116 6.35003 5.90749 5.5237C6.73381 4.69737 7.83325 4.24219 9.00272 4.24219C10.1722 4.24219 11.2716 4.69737 12.0979 5.5237C12.9243 6.35003 13.3795 7.44946 13.3795 8.61893C13.3795 9.78839 12.9243 10.8878 12.0979 11.7142C11.2646 12.5405 10.1722 12.9957 9.00272 12.9957ZM9.00272 5.17356C7.10496 5.17356 5.55735 6.71417 5.55735 8.61893C5.55735 10.5167 7.09796 12.0643 9.00272 12.0643C10.9005 12.0643 12.4481 10.5237 12.4481 8.61893C12.4411 6.72117 10.9005 5.17356 9.00272 5.17356Z" fill="black"/>
<path d="M14.2329 4.09819C14.697 4.09819 15.0733 3.72195 15.0733 3.25784C15.0733 2.79372 14.697 2.41748 14.2329 2.41748C13.7688 2.41748 13.3926 2.79372 13.3926 3.25784C13.3926 3.72195 13.7688 4.09819 14.2329 4.09819Z" fill="black"/>
</svg>
