<svg width="16" height="17" viewBox="0 0 16 17" fill="none" xmlns="http://www.w3.org/2000/svg">
<path d="M3.61199 5.87646H0.268555V16.5385H3.61199V5.87646Z" fill="white"/>
<path d="M12.6567 5.64572C12.5334 5.63031 12.4025 5.6226 12.2715 5.6149C10.3995 5.53786 9.34408 6.64721 8.9743 7.12484C8.87415 7.2558 8.82792 7.33284 8.82792 7.33284V5.90764H5.63086V16.5697H8.82792H8.9743C8.9743 15.4834 8.9743 14.4049 8.9743 13.3187C8.9743 12.7332 8.9743 12.1477 8.9743 11.5622C8.9743 10.8381 8.92037 10.0677 9.28245 9.40515C9.5906 8.85048 10.1453 8.57315 10.7693 8.57315C12.6182 8.57315 12.6567 10.2449 12.6567 10.3989C12.6567 10.4066 12.6567 10.4143 12.6567 10.4143V16.6159H16.0001V9.65938C16.0001 7.27891 14.7906 5.87683 12.6567 5.64572Z" fill="white"/>
<path d="M1.94037 4.4972C3.01255 4.4972 3.88172 3.62803 3.88172 2.55585C3.88172 1.48367 3.01255 0.614502 1.94037 0.614502C0.868191 0.614502 -0.000976562 1.48367 -0.000976562 2.55585C-0.000976562 3.62803 0.868191 4.4972 1.94037 4.4972Z" fill="white"/>
</svg>
