<svg width="66" height="18" viewBox="0 0 66 18" fill="none" xmlns="http://www.w3.org/2000/svg">
<g clip-path="url(#clip0_185_3693)">
<path d="M21.2095 3.90253C21.0749 3.90253 20.9605 3.99829 20.9394 4.12868L19.381 13.8117C19.3753 13.847 19.3775 13.8832 19.3875 13.9176C19.3975 13.9521 19.4149 13.984 19.4387 14.0112C19.4624 14.0384 19.4919 14.0603 19.5251 14.0753C19.5583 14.0902 19.5944 14.098 19.6309 14.098H21.4791C21.6136 14.098 21.7281 14.0021 21.7492 13.8719L22.207 11.0284C22.2279 10.8982 22.3424 10.8022 22.477 10.8022H24.1574C26.1207 10.8022 27.7873 9.39874 28.0918 7.49696C28.3987 5.5791 26.8694 3.90669 24.7019 3.90253H21.2095ZM23.0061 6.06414H24.3505C25.4574 6.06414 25.8178 6.704 25.7039 7.41161C25.5899 8.12073 25.0301 8.64306 23.9594 8.64306H22.591L23.0061 6.06414ZM31.8508 6.72236C31.3841 6.72406 30.8471 6.81774 30.2442 7.06377C28.8614 7.62849 28.1972 8.7956 27.9152 9.64647C27.9152 9.64647 27.0176 12.2424 29.0456 13.6686C29.0456 13.6686 30.9265 15.0416 33.0438 13.584L33.0072 13.8117C33.0016 13.847 33.0038 13.8831 33.0137 13.9176C33.0237 13.952 33.0411 13.9839 33.0648 14.0111C33.0885 14.0383 33.118 14.0601 33.1511 14.0751C33.1842 14.0902 33.2203 14.098 33.2568 14.098H35.0113C35.146 14.098 35.2603 14.0021 35.2814 13.8719L36.3486 7.2409C36.3543 7.20554 36.3522 7.16937 36.3423 7.13491C36.3324 7.10044 36.3149 7.06848 36.2912 7.04124C36.2675 7.01399 36.2381 6.9921 36.2049 6.97707C36.1717 6.96205 36.1356 6.95424 36.0991 6.95419H34.3445C34.2099 6.95419 34.0954 7.05014 34.0745 7.18034L34.0171 7.53727C34.0171 7.53727 33.251 6.71725 31.8508 6.72236ZM31.9081 8.81679C32.1096 8.81679 32.2939 8.84404 32.4592 8.89609C33.2163 9.13417 33.6455 9.84669 33.5213 10.619C33.3681 11.57 32.5721 12.2702 31.5512 12.2702C31.3499 12.2702 31.1656 12.2432 31.0001 12.1911C30.2432 11.953 29.8113 11.2405 29.9355 10.4682C30.0887 9.51721 30.8873 8.81679 31.9081 8.81679Z" fill="#003087"/>
<path d="M46.4751 3.90259C46.3405 3.90259 46.2261 3.99835 46.2051 4.12874L44.6466 13.8117C44.6409 13.8471 44.6432 13.8833 44.6531 13.9177C44.6631 13.9522 44.6805 13.9841 44.7043 14.0113C44.7281 14.0385 44.7575 14.0603 44.7907 14.0753C44.8239 14.0903 44.86 14.0981 44.8966 14.0981H46.7448C46.8792 14.0981 46.9938 14.0021 47.0148 13.8719L47.4726 11.0284C47.4935 10.8982 47.608 10.8023 47.7427 10.8023H49.423C51.3863 10.8023 53.0528 9.3988 53.357 7.49702C53.6641 5.57916 52.1351 3.90675 49.9675 3.90259H46.4751ZM48.2717 6.06421H49.6162C50.723 6.06421 51.0835 6.70406 50.9695 7.41167C50.8555 8.12079 50.2959 8.64312 49.225 8.64312H47.8566L48.2717 6.06421ZM57.1162 6.72242C56.6495 6.72412 56.1125 6.8178 55.5096 7.06383C54.1268 7.62855 53.4627 8.79566 53.1807 9.64653C53.1807 9.64653 52.2834 12.2425 54.3114 13.6687C54.3114 13.6687 56.1919 15.0417 58.3094 13.5841L58.2729 13.8117C58.2672 13.8471 58.2694 13.8833 58.2794 13.9177C58.2894 13.9522 58.3068 13.9841 58.3306 14.0113C58.3543 14.0385 58.3838 14.0603 58.417 14.0753C58.4502 14.0903 58.4863 14.0981 58.5228 14.0981H60.2772C60.4118 14.0981 60.5262 14.0021 60.5472 13.8719L61.6148 7.24096C61.6206 7.20557 61.6184 7.16937 61.6085 7.13488C61.5985 7.10038 61.5811 7.06841 61.5573 7.04115C61.5336 7.0139 61.5041 6.99202 61.4708 6.97702C61.4376 6.96201 61.4015 6.95425 61.3649 6.95425H59.6104C59.4757 6.95425 59.3612 7.0502 59.3403 7.1804L59.2829 7.53733C59.2829 7.53733 58.5165 6.71731 57.1162 6.72242ZM57.1736 8.81685C57.375 8.81685 57.5593 8.84411 57.7247 8.89615C58.4817 9.13423 58.9109 9.84675 58.7867 10.6191C58.6335 11.5701 57.8375 12.2703 56.8166 12.2703C56.6153 12.2703 56.431 12.2432 56.2655 12.1912C55.5087 11.9531 55.0768 11.2406 55.201 10.4683C55.3542 9.51727 56.1527 8.81685 57.1736 8.81685Z" fill="#0070E0"/>
<path d="M37.181 6.95423C37.0419 6.95423 36.943 7.08727 36.9855 7.21691L38.9091 13.0649L37.1698 15.8208C37.0854 15.9546 37.1835 16.1274 37.3441 16.1274H39.3997C39.4585 16.1273 39.5163 16.1124 39.5675 16.0841C39.6187 16.0558 39.6616 16.015 39.692 15.9658L45.0641 7.25892C45.1466 7.12512 45.0481 6.95404 44.8885 6.95404H42.833C42.7737 6.95409 42.7154 6.96928 42.6638 6.99812C42.6123 7.02695 42.5693 7.06844 42.539 7.1185L40.4245 10.6162L39.351 7.14443C39.3161 7.03144 39.2096 6.95404 39.0893 6.95404L37.181 6.95423Z" fill="#003087"/>
<path d="M63.6084 3.90259C63.4739 3.90259 63.3594 3.99854 63.3383 4.12874L61.7795 13.8114C61.7738 13.8468 61.7759 13.883 61.7859 13.9174C61.7958 13.9519 61.8132 13.9839 61.837 14.0112C61.8608 14.0384 61.8903 14.0603 61.9235 14.0753C61.9567 14.0903 61.9929 14.0981 62.0294 14.0981H63.8776C64.0121 14.0981 64.1266 14.0021 64.1477 13.8719L65.7061 4.18892C65.7118 4.15358 65.7096 4.11746 65.6997 4.08304C65.6897 4.04862 65.6723 4.01671 65.6486 3.98951C65.6249 3.96231 65.5954 3.94046 65.5623 3.92545C65.5292 3.91045 65.4931 3.90265 65.4566 3.90259H63.6084Z" fill="#0070E0"/>
<path d="M5.8014 3.90259C5.68235 3.90268 5.56723 3.94437 5.47673 4.02017C5.38624 4.09596 5.32628 4.20089 5.30767 4.3161L4.4873 9.41375C4.52555 9.17567 4.73494 9.00024 4.98103 9.00024H7.38497C9.80437 9.00024 11.8573 7.27106 12.2324 4.92776C12.2604 4.75281 12.2762 4.57622 12.2798 4.39918C11.6649 4.08332 10.9427 3.90259 10.1513 3.90259H5.8014Z" fill="#001C64"/>
<path d="M12.2792 4.3996C12.2756 4.57663 12.2598 4.75323 12.2319 4.92817C11.8567 7.27147 9.80359 9.00065 7.38439 9.00065H4.98044C4.73454 9.00065 4.52497 9.1759 4.48672 9.41417L3.7324 14.0985L3.25992 17.0372C3.2507 17.0939 3.25416 17.152 3.27006 17.2073C3.28597 17.2627 3.31395 17.314 3.35205 17.3577C3.39016 17.4014 3.43749 17.4365 3.49078 17.4606C3.54408 17.4846 3.60207 17.4971 3.66074 17.497H6.27002C6.38908 17.497 6.50419 17.4553 6.59469 17.3795C6.68519 17.3037 6.74513 17.1987 6.76374 17.0835L7.45102 12.8127C7.46965 12.6975 7.52965 12.5925 7.62023 12.5167C7.71081 12.4409 7.82603 12.3992 7.94515 12.3992H9.48139C11.9008 12.3992 13.9537 10.67 14.3289 8.32673C14.5952 6.6636 13.7403 5.15016 12.2792 4.3996Z" fill="#0070E0"/>
<path d="M2.83636 0.505066C2.59046 0.505066 2.38088 0.680312 2.34264 0.9182L0.295078 13.6389C0.256252 13.8803 0.446718 14.0987 0.696288 14.0987H3.73265L4.48658 9.41441L5.30694 4.31676C5.32556 4.20155 5.38551 4.09662 5.47601 4.02083C5.56651 3.94503 5.68162 3.90334 5.80068 3.90325H10.1506C10.9422 3.90325 11.6642 4.08417 12.2791 4.39984C12.3212 2.26642 10.5243 0.505066 8.05395 0.505066H2.83636Z" fill="#003087"/>
</g>
<defs>
<clipPath id="clip0_185_3693">
<rect width="65.4187" height="16.9919" fill="white" transform="translate(0.291016 0.504089)"/>
</clipPath>
</defs>
</svg>
