<svg width="120" height="19" viewBox="0 0 120 19" fill="none" xmlns="http://www.w3.org/2000/svg">
<path d="M0.721591 18V0.545454H7.26705C8.60795 0.545454 9.73295 0.778409 10.642 1.24432C11.5568 1.71023 12.2472 2.36364 12.7131 3.20454C13.1847 4.03977 13.4205 5.0142 13.4205 6.12784C13.4205 7.24716 13.1818 8.21875 12.7045 9.04261C12.233 9.8608 11.5369 10.4943 10.6165 10.9432C9.69602 11.3864 8.56534 11.608 7.22443 11.608H2.5625V8.98295H6.7983C7.58239 8.98295 8.22443 8.875 8.72443 8.65909C9.22443 8.4375 9.59375 8.11648 9.83239 7.69602C10.0767 7.26989 10.1989 6.74716 10.1989 6.12784C10.1989 5.50852 10.0767 4.98011 9.83239 4.54261C9.58807 4.09943 9.21591 3.7642 8.71591 3.53693C8.21591 3.30398 7.57102 3.1875 6.78125 3.1875H3.88352V18H0.721591ZM9.73864 10.0909L14.0597 18H10.5312L6.28693 10.0909H9.73864ZM27.3338 0.545454H30.4957V11.9489C30.4957 13.1989 30.2003 14.2983 29.6094 15.2472C29.0241 16.196 28.2003 16.9375 27.1378 17.4716C26.0753 18 24.8338 18.2642 23.4134 18.2642C21.9872 18.2642 20.7429 18 19.6804 17.4716C18.6179 16.9375 17.794 16.196 17.2088 15.2472C16.6236 14.2983 16.331 13.1989 16.331 11.9489V0.545454H19.4929V11.6847C19.4929 12.4119 19.652 13.0597 19.9702 13.6278C20.294 14.196 20.7486 14.642 21.3338 14.9659C21.919 15.2841 22.6122 15.4432 23.4134 15.4432C24.2145 15.4432 24.9077 15.2841 25.4929 14.9659C26.0838 14.642 26.5384 14.196 26.8565 13.6278C27.1747 13.0597 27.3338 12.4119 27.3338 11.6847V0.545454ZM48.2763 0.545454V18H45.4638L37.2393 6.1108H37.0945V18H33.9325V0.545454H36.7621L44.978 12.4432H45.1314V0.545454H48.2763ZM55.3949 18L50.4688 0.545454H53.8693L57.0142 13.3722H57.1761L60.5341 0.545454H63.6278L66.9943 13.3807H67.1477L70.2926 0.545454H73.6932L68.767 18H65.6477L62.1534 5.75284H62.017L58.5142 18H55.3949ZM76.4865 18H73.1115L79.2564 0.545454H83.1598L89.3132 18H85.9382L81.2763 4.125H81.1399L76.4865 18ZM76.5973 11.1562H85.8018V13.696H76.5973V11.1562ZM88.6378 0.545454H92.2088L96.4787 8.26705H96.6491L100.919 0.545454H104.49L98.1406 11.4886V18H94.9872V11.4886L88.6378 0.545454ZM110.345 10.1932V3.90341H113.456C113.808 3.90341 114.143 3.98295 114.462 4.14204C114.786 4.29545 115.047 4.52557 115.246 4.83239C115.45 5.1392 115.553 5.51705 115.553 5.96591C115.553 6.41477 115.447 6.7983 115.237 7.11648C115.027 7.42898 114.754 7.66761 114.419 7.83239C114.089 7.99716 113.743 8.07955 113.379 8.07955H111.206V6.94602H113.004C113.226 6.94602 113.43 6.86364 113.618 6.69886C113.805 6.53409 113.899 6.28977 113.899 5.96591C113.899 5.625 113.805 5.38636 113.618 5.25C113.43 5.11364 113.234 5.04545 113.03 5.04545H111.896V10.1932H110.345ZM114.291 7.26989L115.774 10.1932H114.07L112.663 7.26989H114.291ZM112.791 13.9432C111.848 13.9432 110.964 13.767 110.141 13.4148C109.317 13.0625 108.592 12.5739 107.967 11.9489C107.342 11.3239 106.854 10.5994 106.501 9.77557C106.149 8.9517 105.973 8.06818 105.973 7.125C105.973 6.18182 106.149 5.2983 106.501 4.47443C106.854 3.65057 107.342 2.92614 107.967 2.30114C108.592 1.67614 109.317 1.1875 110.141 0.835227C110.964 0.482954 111.848 0.306818 112.791 0.306818C113.734 0.306818 114.618 0.482954 115.442 0.835227C116.266 1.1875 116.99 1.67614 117.615 2.30114C118.24 2.92614 118.729 3.65057 119.081 4.47443C119.433 5.2983 119.609 6.18182 119.609 7.125C119.609 8.06818 119.433 8.9517 119.081 9.77557C118.729 10.5994 118.24 11.3239 117.615 11.9489C116.99 12.5739 116.266 13.0625 115.442 13.4148C114.618 13.767 113.734 13.9432 112.791 13.9432ZM112.791 12.196C113.723 12.196 114.572 11.9687 115.339 11.5142C116.107 11.0597 116.717 10.4489 117.172 9.68182C117.632 8.90909 117.862 8.05682 117.862 7.125C117.862 6.19318 117.632 5.34375 117.172 4.5767C116.717 3.80398 116.107 3.19034 115.339 2.73579C114.572 2.28125 113.723 2.05398 112.791 2.05398C111.854 2.05398 111.001 2.28125 110.234 2.73579C109.467 3.19034 108.854 3.80398 108.393 4.5767C107.939 5.34375 107.712 6.19318 107.712 7.125C107.712 8.05682 107.939 8.90625 108.393 9.6733C108.854 10.4403 109.467 11.054 110.234 11.5142C111.001 11.9687 111.854 12.196 112.791 12.196Z" fill="black"/>
</svg>
