<svg width="16" height="16" viewBox="0 0 16 16" fill="none" xmlns="http://www.w3.org/2000/svg">
<path d="M9.33333 10H9.83333V9.5H9.33333V10ZM9.33333 12.3333H8.83333C8.83333 12.5322 8.95123 12.7122 9.13357 12.7917C9.31591 12.8712 9.52802 12.835 9.67371 12.6996L9.33333 12.3333ZM9.33333 6V6.5H9.83333V6H9.33333ZM9.33333 3.66666L9.6734 3.30012C9.52765 3.16489 9.31561 3.12887 9.13338 3.20839C8.95114 3.2879 8.83333 3.46784 8.83333 3.66666H9.33333ZM14 7.99631L14.3404 8.36256C14.4422 8.26791 14.5001 8.13513 14.5 7.9961C14.4999 7.85706 14.442 7.72433 14.3401 7.62977L14 7.99631ZM4.9627 10.21L4.82379 9.72965H4.82379L4.9627 10.21ZM2 12H1.5C1.5 12.1894 1.607 12.3625 1.77639 12.4472C1.94579 12.5319 2.14849 12.5136 2.3 12.4L2 12ZM4.55582 10.3456L4.73288 10.8132L4.73288 10.8132L4.55582 10.3456ZM4.46927 6.30448L4.27792 5.84254H4.27792L4.46927 6.30448ZM2.30448 8.46926L1.84254 8.27792L1.84254 8.27792L2.30448 8.46926ZM8.83333 10V12.3333H9.83333V10H8.83333ZM9.83333 6V3.66666H8.83333V6H9.83333ZM8.99326 4.03321L13.6599 8.36285L14.3401 7.62977L9.6734 3.30012L8.99326 4.03321ZM9.67371 12.6996L14.3404 8.36256L13.6596 7.63006L8.99295 11.9671L9.67371 12.6996ZM9.33333 5.5H8V6.5H9.33333V5.5ZM9.33333 9.5H8V10.5H9.33333V9.5ZM8 9.5C6.48718 9.5 5.63354 9.49546 4.82379 9.72965L5.10161 10.6903C5.74385 10.5045 6.43108 10.5 8 10.5V9.5ZM2.3 12.4C3.55514 11.4586 4.10764 11.0499 4.73288 10.8132L4.37876 9.87799C3.59045 10.1765 2.91026 10.6923 1.7 11.6L2.3 12.4ZM4.82379 9.72965C4.67352 9.77311 4.52506 9.8226 4.37876 9.87799L4.73288 10.8132C4.85409 10.7673 4.9771 10.7263 5.10161 10.6903L4.82379 9.72965ZM8 5.5C7.07496 5.5 6.35614 5.49973 5.77734 5.53922C5.19406 5.57901 4.71654 5.66086 4.27792 5.84254L4.66061 6.76642C4.95707 6.64362 5.31304 6.57322 5.84541 6.5369C6.38227 6.50027 7.06128 6.5 8 6.5V5.5ZM2.5 12C2.5 11.0613 2.50027 10.3823 2.5369 9.84541C2.57322 9.31304 2.64362 8.95707 2.76642 8.6606L1.84254 8.27792C1.66086 8.71654 1.57902 9.19405 1.53922 9.77734C1.49973 10.3561 1.5 11.075 1.5 12H2.5ZM4.27792 5.84254C3.1753 6.29926 2.29927 7.1753 1.84254 8.27792L2.76642 8.66061C3.12165 7.80301 3.80301 7.12165 4.66061 6.76642L4.27792 5.84254Z" fill="black"/>
</svg>
