<svg width="71" height="17" viewBox="0 0 71 17" fill="none" xmlns="http://www.w3.org/2000/svg">
<g clip-path="url(#clip0_1550_755)">
<path fill-rule="evenodd" clip-rule="evenodd" d="M34.507 5.32482C35.1518 4.55012 36.1523 3.90802 37.3468 3.90802C40.0283 3.90802 42.1406 6.06463 42.1388 8.72548C42.1388 11.498 40.0158 13.5499 37.4688 13.5499C36.1146 13.5499 35.0782 12.8764 34.6992 12.3146H34.6633V16.387C34.6633 16.4116 34.6532 16.435 34.6354 16.4524C34.6175 16.4697 34.5934 16.4794 34.5681 16.4794H32.1811C32.1556 16.4794 32.1312 16.4698 32.113 16.4525C32.095 16.4352 32.0845 16.4117 32.084 16.387V3.99876C32.084 3.97377 32.0942 3.94979 32.1125 3.93213C32.1307 3.91446 32.1553 3.90454 32.1811 3.90454H34.4119C34.4373 3.905 34.4615 3.91512 34.4793 3.93274C34.4971 3.95036 34.507 3.97407 34.507 3.99876V5.32482ZM37.143 11.1889C36.9451 11.195 36.7461 11.1785 36.5501 11.1391C36.057 11.04 35.6056 10.8003 35.2536 10.4506C34.9015 10.1009 34.6649 9.65717 34.5739 9.17613C34.5477 9.03792 34.5339 8.89843 34.5323 8.75918C34.5305 8.60314 34.544 8.44656 34.573 8.29155C34.6631 7.81086 34.8984 7.36712 35.2492 7.01695C35.6 6.66679 36.0501 6.4261 36.5423 6.3256C36.7394 6.28535 36.9396 6.26832 37.1388 6.27413C37.4625 6.278 37.7823 6.34327 38.0804 6.46629C38.3823 6.59096 38.6559 6.77249 38.8854 7.00039C39.1148 7.22829 39.2955 7.49806 39.4171 7.79413C39.5386 8.09021 39.5986 8.40674 39.5938 8.72548C39.5938 8.72543 39.5938 8.72553 39.5938 8.72548C39.5989 9.0448 39.5391 9.36213 39.4179 9.65897C39.2965 9.95583 39.1159 10.2265 38.8867 10.4554C38.6574 10.6843 38.3838 10.867 38.0817 10.9929C37.7847 11.1166 37.4659 11.1832 37.143 11.1889Z" fill="#5A31F4"/>
<path d="M19.0099 5.76056C18.4585 4.6369 17.4131 3.91105 15.8379 3.91105C15.3544 3.91923 14.8793 4.0352 14.4492 4.25C14.0192 4.46478 13.6456 4.77265 13.3574 5.14987L13.2999 5.21792V0.813983C13.2999 0.788532 13.2895 0.764125 13.271 0.746128C13.2525 0.72813 13.2274 0.718018 13.2012 0.718018H10.9739C10.9481 0.718475 10.9234 0.728786 10.9053 0.746734C10.8871 0.764682 10.877 0.788831 10.877 0.813983V13.4465C10.877 13.4715 10.8872 13.4955 10.9054 13.5131C10.9236 13.5308 10.9482 13.5407 10.9739 13.5407H13.3592C13.3851 13.5407 13.41 13.5308 13.4284 13.5132C13.4469 13.4956 13.4575 13.4716 13.458 13.4465V8.06023C13.458 7.01333 14.1765 6.27178 15.326 6.27178C16.5833 6.27178 16.9012 7.2768 16.9012 8.30101V13.4465C16.9012 13.4715 16.9114 13.4955 16.9296 13.5131C16.9478 13.5308 16.9725 13.5407 16.9982 13.5407H19.378C19.404 13.5407 19.4289 13.5308 19.4472 13.5132C19.4657 13.4956 19.4764 13.4716 19.4769 13.4465V7.99393C19.4769 7.80724 19.4769 7.62402 19.4518 7.44605C19.4109 6.86284 19.2612 6.29172 19.0099 5.76056Z" fill="#5A31F4"/>
<path d="M7.10027 7.63288C7.10027 7.63288 5.88608 7.35546 5.43884 7.24379C4.9916 7.13212 4.21028 6.89482 4.21028 6.32077C4.21028 5.74672 4.84073 5.56353 5.48015 5.56353C6.11958 5.56353 6.83085 5.71358 6.88653 6.40278C6.88878 6.42762 6.90055 6.45072 6.91951 6.46754C6.93848 6.48434 6.96324 6.49361 6.98892 6.49352L9.34005 6.48479C9.3539 6.48483 9.36759 6.48209 9.38028 6.47675C9.39298 6.47139 9.4044 6.46357 9.41385 6.45374C9.42329 6.44392 9.43055 6.43231 9.43515 6.41964C9.43975 6.40696 9.44163 6.3935 9.44064 6.3801C9.29516 4.17465 7.30323 3.38599 5.46578 3.38599C3.28707 3.38599 1.69389 4.78184 1.69389 6.32077C1.69389 7.44443 2.02078 8.49831 4.59106 9.23114C5.04189 9.3585 5.65438 9.52427 6.18962 9.66908C6.83265 9.84358 7.1793 10.107 7.1793 10.5223C7.1793 11.0039 6.46084 11.3389 5.75496 11.3389C4.73295 11.3389 4.00731 10.9707 3.94804 10.3094C3.94496 10.2852 3.93283 10.263 3.91395 10.2469C3.89507 10.2308 3.87077 10.222 3.84566 10.2222L1.4999 10.2327C1.48615 10.2327 1.47254 10.2353 1.45988 10.2406C1.44722 10.2458 1.43577 10.2534 1.42621 10.263C1.41666 10.2726 1.40919 10.284 1.40426 10.2965C1.39933 10.3089 1.39704 10.3223 1.39752 10.3356C1.50529 12.4172 3.57445 13.5391 5.5035 13.5391C8.37733 13.5391 9.67593 11.9688 9.67593 10.4979C9.67953 9.80694 9.51608 8.23309 7.10027 7.63288Z" fill="#5A31F4"/>
<path d="M25.0203 3.36353C22.7948 3.36353 21.6849 4.0981 20.794 4.6861L20.767 4.70355C20.7211 4.73411 20.6887 4.78038 20.6764 4.8331C20.664 4.88583 20.6728 4.94115 20.7005 4.98796L21.5806 6.46059C21.5972 6.48814 21.6197 6.51182 21.6468 6.52991C21.6738 6.54802 21.7046 6.5601 21.7369 6.56528C21.7687 6.57083 21.8011 6.56948 21.8322 6.56134C21.8633 6.55318 21.892 6.53845 21.9165 6.51817L21.9867 6.46233C22.4445 6.08894 23.1793 5.58992 24.9574 5.45382C25.9471 5.37706 26.8021 5.62831 27.4324 6.20061C28.1258 6.82177 28.5408 7.82504 28.5408 8.88415C28.5408 10.8331 27.3588 12.058 25.4603 12.0824C23.8959 12.0737 22.8452 11.2815 22.8452 10.1108C22.8452 9.48961 23.1344 9.08481 23.6983 8.68001C23.7414 8.65009 23.7719 8.60603 23.784 8.556C23.7962 8.50597 23.7894 8.45332 23.7647 8.40781L22.9744 6.95611C22.9598 6.93013 22.9402 6.90721 22.9164 6.88864C22.8927 6.87008 22.8653 6.85625 22.8361 6.84794C22.8063 6.83928 22.7749 6.83684 22.7439 6.84074C22.713 6.84465 22.6831 6.85484 22.6566 6.87063C21.7693 7.38185 20.6807 8.31707 20.7401 10.1142C20.8119 12.4017 22.7697 14.1483 25.3148 14.2198H25.4423H25.6166C28.6413 14.1239 30.8254 11.9428 30.8254 8.98534C30.8254 6.27041 28.7886 3.36353 25.0203 3.36353Z" fill="#5A31F4"/>
<rect width="22.6659" height="11.7863" transform="translate(45.8184 2.7229)" fill="white"/>
<path fill-rule="evenodd" clip-rule="evenodd" d="M47.0627 0.750244H67.4291C68.8347 0.750244 69.9743 1.85718 69.9743 3.22265V14.0545C69.9743 15.42 68.8347 16.5269 67.4291 16.5269H47.0627C45.657 16.5269 44.5176 15.42 44.5176 14.0545V3.22265C44.5176 1.85718 45.657 0.750244 47.0627 0.750244ZM51.632 9.32954C53.3312 9.32954 54.5471 8.12561 54.5471 6.43837C54.5471 4.75984 53.3312 3.54893 51.632 3.54893H48.6325C48.5968 3.54893 48.5624 3.56272 48.5373 3.58727C48.512 3.6118 48.4978 3.64509 48.4978 3.67981V11.6763C48.4982 11.7109 48.5125 11.7439 48.5378 11.7684C48.5629 11.7928 48.597 11.8067 48.6325 11.8072H49.7604C49.7962 11.8072 49.8304 11.7934 49.8557 11.7688C49.881 11.7443 49.8951 11.711 49.8951 11.6763V9.4604C49.8951 9.4257 49.9094 9.39241 49.9347 9.36786C49.9599 9.34332 49.9941 9.32954 50.03 9.32954H51.632ZM51.5458 4.76333C52.469 4.76333 53.1498 5.47174 53.1498 6.43837C53.1498 7.40673 52.469 8.11339 51.5458 8.11339H50.03C49.9945 8.11339 49.9604 8.09985 49.9353 8.07568C49.91 8.05153 49.8956 8.01868 49.8951 7.98428V4.89419C49.8956 4.85963 49.91 4.82661 49.9351 4.80216C49.9603 4.77772 49.9943 4.76379 50.03 4.76333H51.5458ZM54.8794 10.2735C54.8677 10.0148 54.9227 9.75739 55.0394 9.5246C55.1561 9.2918 55.3308 9.09101 55.5477 8.94044C55.986 8.62113 56.6648 8.45538 57.6725 8.41699L58.7411 8.3821V8.075C58.7411 7.46258 58.3173 7.20259 57.6365 7.20259C56.9559 7.20259 56.5265 7.4364 56.426 7.81852C56.4179 7.84551 56.4009 7.86911 56.3774 7.88557C56.3539 7.90201 56.3255 7.91035 56.2967 7.90925H55.2423C55.2229 7.90972 55.2036 7.90605 55.1859 7.89851C55.1681 7.89097 55.1522 7.87973 55.1394 7.8656C55.1266 7.85146 55.117 7.83477 55.1115 7.8167C55.106 7.79861 55.1047 7.77959 55.1076 7.76094C55.2657 6.85362 56.038 6.16443 57.6851 6.16443C59.4345 6.16443 60.0649 6.95484 60.0649 8.4641V11.6711C60.0652 11.6884 60.0619 11.7056 60.0551 11.7217C60.0485 11.7378 60.0386 11.7524 60.0261 11.7648C60.0136 11.7771 59.9987 11.7869 59.9822 11.7936C59.9657 11.8003 59.948 11.8037 59.9302 11.8037H58.8651C58.8473 11.8037 58.8296 11.8003 58.8131 11.7936C58.7967 11.7869 58.7818 11.7771 58.7691 11.7648C58.7567 11.7524 58.7468 11.7378 58.7401 11.7217C58.7335 11.7056 58.7301 11.6884 58.7304 11.6711V11.432C58.7322 11.4111 58.727 11.3901 58.7155 11.3722C58.704 11.3544 58.687 11.3406 58.6667 11.333C58.6465 11.3253 58.6244 11.3242 58.6035 11.3298C58.5826 11.3354 58.5641 11.3474 58.5508 11.364C58.2328 11.7007 57.7156 11.945 56.8912 11.945C55.6824 11.9485 54.8794 11.3343 54.8794 10.2735ZM58.7411 9.57555V9.32779L57.3582 9.39758C56.629 9.43422 56.2032 9.7291 56.2032 10.2246C56.2032 10.6731 56.593 10.9226 57.272 10.9226C58.1952 10.9226 58.7411 10.4375 58.7411 9.5773V9.57555ZM61.1354 13.2955V14.229C61.1338 14.2592 61.1426 14.289 61.1606 14.3137C61.1784 14.3384 61.2043 14.3565 61.2342 14.3651C61.422 14.4148 61.6162 14.4377 61.8109 14.4331C62.8435 14.4331 63.7865 14.0667 64.3255 12.6395L66.6963 6.49593C66.7031 6.47616 66.7049 6.45511 66.7018 6.4345C66.6986 6.41388 66.6905 6.39428 66.6781 6.37728C66.6657 6.36029 66.6493 6.34637 66.6303 6.33667C66.6114 6.32697 66.5903 6.32176 66.5687 6.32146H65.4641C65.4354 6.32122 65.4074 6.32991 65.3842 6.34623C65.3609 6.36255 65.3437 6.38565 65.3348 6.41218L64.029 10.3031C64.0191 10.3286 64.0013 10.3506 63.9783 10.3661C63.9551 10.3816 63.9277 10.3899 63.8997 10.3899C63.8716 10.3899 63.8442 10.3816 63.821 10.3661C63.798 10.3506 63.7804 10.3286 63.7703 10.3031L62.2652 6.40171C62.2551 6.37673 62.2376 6.35523 62.2149 6.33999C62.1922 6.32475 62.1653 6.31648 62.1376 6.31623H61.0599C61.0385 6.31653 61.0174 6.32174 60.9985 6.33144C60.9795 6.34114 60.9631 6.35506 60.9507 6.37205C60.9382 6.38904 60.9301 6.40864 60.927 6.42927C60.9238 6.44988 60.9257 6.47093 60.9325 6.49071L63.1489 12.0218C63.1597 12.0505 63.1597 12.0821 63.1489 12.1108L63.0788 12.3254C62.9972 12.5916 62.8258 12.8235 62.5923 12.9839C62.3589 13.1443 62.0767 13.2239 61.7911 13.21C61.6253 13.2098 61.4599 13.1946 61.297 13.1647C61.2773 13.161 61.257 13.1617 61.2376 13.1667C61.2181 13.1716 61.2 13.1806 61.1846 13.1931C61.1692 13.2056 61.1567 13.2213 61.1482 13.239C61.1397 13.2567 61.1353 13.276 61.1354 13.2955Z" fill="#5A31F4"/>
</g>
<defs>
<clipPath id="clip0_1550_755">
<rect width="70.2643" height="16.0604" fill="white" transform="translate(0.523438 0.585205)"/>
</clipPath>
</defs>
</svg>
