<svg width="78" height="18" viewBox="0 0 78 18" fill="none" xmlns="http://www.w3.org/2000/svg">
<g clip-path="url(#clip0_185_3667)">
<path fill-rule="evenodd" clip-rule="evenodd" d="M37.7331 5.37055C38.4443 4.51608 39.5479 3.80785 40.8653 3.80785C43.823 3.80785 46.1528 6.18655 46.1508 9.12141C46.1508 12.1795 43.8092 14.4427 40.9999 14.4427C39.5062 14.4427 38.3631 13.6998 37.9451 13.0801H37.9054V17.5719C37.9054 17.599 37.8943 17.6249 37.8747 17.644C37.855 17.6631 37.8284 17.6739 37.8005 17.6739H35.1676C35.1396 17.6739 35.1126 17.6633 35.0925 17.6442C35.0727 17.6251 35.0611 17.5992 35.0605 17.5719V3.90794C35.0605 3.88038 35.0718 3.85393 35.092 3.83444C35.112 3.81496 35.1392 3.80402 35.1676 3.80402H37.6281C37.6562 3.80452 37.6829 3.81569 37.7025 3.83512C37.7222 3.85455 37.7331 3.88071 37.7331 3.90794V5.37055ZM40.6405 11.8385C40.4223 11.8452 40.2027 11.8271 39.9866 11.7836C39.4427 11.6743 38.9448 11.4099 38.5565 11.0242C38.1682 10.6385 37.9072 10.149 37.8069 9.61847C37.778 9.46602 37.7628 9.31217 37.761 9.15858C37.759 8.98647 37.7739 8.81377 37.8059 8.6428C37.9053 8.1126 38.1648 7.62316 38.5517 7.23694C38.9386 6.85072 39.4351 6.58525 39.978 6.47439C40.1954 6.43 40.4162 6.41121 40.6359 6.41762C40.9929 6.42189 41.3456 6.49388 41.6744 6.62957C42.0075 6.76708 42.3093 6.9673 42.5624 7.21867C42.8154 7.47004 43.0147 7.76759 43.1488 8.09416C43.2829 8.42072 43.349 8.76985 43.3437 9.12141C43.3437 9.12136 43.3437 9.12146 43.3437 9.12141C43.3494 9.47361 43.2834 9.82363 43.1497 10.151C43.0158 10.4785 42.8166 10.777 42.5638 11.0295C42.3109 11.282 42.0091 11.4835 41.6758 11.6224C41.3483 11.7588 40.9967 11.8322 40.6405 11.8385Z" fill="white"/>
<path d="M20.6404 5.85143C20.0322 4.61205 18.8792 3.81145 17.1417 3.81145C16.6085 3.82049 16.0844 3.94839 15.6101 4.18531C15.1357 4.42222 14.7237 4.76179 14.4058 5.17785L14.3424 5.25291V0.395459C14.3424 0.367387 14.331 0.340467 14.3105 0.320617C14.2901 0.300766 14.2624 0.289612 14.2335 0.289612H11.7769C11.7484 0.290116 11.7211 0.30149 11.7011 0.321285C11.6811 0.341082 11.6699 0.367717 11.6699 0.395459V14.3289C11.6699 14.3564 11.6812 14.3829 11.7013 14.4023C11.7213 14.4218 11.7485 14.4328 11.7769 14.4328H14.4078C14.4364 14.4328 14.4638 14.4219 14.4842 14.4025C14.5045 14.383 14.5163 14.3566 14.5168 14.3289V8.38792C14.5168 7.23321 15.3092 6.4153 16.5771 6.4153C17.9639 6.4153 18.3145 7.52381 18.3145 8.6535V14.3289C18.3145 14.3564 18.3258 14.3829 18.3459 14.4023C18.3659 14.4218 18.3931 14.4328 18.4215 14.4328H21.0464C21.075 14.4328 21.1026 14.4219 21.1228 14.4025C21.1431 14.383 21.1549 14.3566 21.1555 14.3289V8.31479C21.1555 8.10887 21.1555 7.90679 21.1278 7.71049C21.0827 7.06722 20.9175 6.43728 20.6404 5.85143Z" fill="white"/>
<path d="M7.50394 7.91598C7.50394 7.91598 6.16472 7.60999 5.67142 7.48683C5.17812 7.36366 4.31634 7.10192 4.31634 6.46876C4.31634 5.83559 5.01172 5.63353 5.71699 5.63353C6.42227 5.63353 7.20678 5.79904 7.26819 6.55921C7.27068 6.58661 7.28366 6.61209 7.30457 6.63064C7.32549 6.64917 7.35281 6.6594 7.38112 6.65929L9.97438 6.64967C9.98965 6.6497 10.0048 6.64668 10.0188 6.6408C10.0328 6.63489 10.0454 6.62626 10.0558 6.61542C10.0662 6.60459 10.0742 6.59179 10.0793 6.57781C10.0843 6.56383 10.0864 6.54898 10.0853 6.5342C9.92486 4.10163 7.72781 3.23175 5.70114 3.23175C3.29806 3.23175 1.54082 4.77135 1.54082 6.46876C1.54082 7.70813 1.90138 8.87054 4.73635 9.67883C5.2336 9.81931 5.90916 10.0022 6.49952 10.1619C7.20877 10.3543 7.59112 10.6449 7.59112 11.103C7.59112 11.6341 6.79867 12.0036 6.02009 12.0036C4.89285 12.0036 4.09248 11.5976 4.0271 10.8682C4.0237 10.8415 4.01033 10.8169 3.9895 10.7992C3.96867 10.7814 3.94188 10.7717 3.91418 10.7719L1.32686 10.7835C1.31169 10.7835 1.29668 10.7864 1.28271 10.7922C1.26875 10.798 1.25612 10.8064 1.24558 10.817C1.23504 10.8276 1.2268 10.8401 1.22137 10.8539C1.21593 10.8676 1.2134 10.8823 1.21394 10.897C1.3328 13.193 3.61504 14.4304 5.74274 14.4304C8.91251 14.4304 10.3448 12.6984 10.3448 11.076C10.3488 10.3139 10.1685 8.57801 7.50394 7.91598Z" fill="white"/>
<path d="M27.2689 3.20734C24.8143 3.20734 23.59 4.01756 22.6075 4.66611L22.5776 4.68535C22.527 4.71906 22.4913 4.7701 22.4777 4.82825C22.4641 4.88641 22.4738 4.94742 22.5043 4.99905L23.4751 6.62333C23.4933 6.65372 23.5182 6.67984 23.548 6.6998C23.5779 6.71977 23.6119 6.73309 23.6474 6.7388C23.6825 6.74493 23.7182 6.74344 23.7526 6.73446C23.7869 6.72546 23.8185 6.70921 23.8455 6.68684L23.9229 6.62526C24.428 6.21342 25.2384 5.66301 27.1996 5.51289C28.2912 5.42822 29.2342 5.70535 29.9295 6.33658C30.6943 7.02171 31.152 8.1283 31.152 9.29647C31.152 11.4461 29.8483 12.7971 27.7543 12.8241C26.0288 12.8145 24.8699 11.9407 24.8699 10.6494C24.8699 9.96428 25.1889 9.51779 25.8108 9.0713C25.8584 9.03831 25.892 8.98971 25.9054 8.93452C25.9188 8.87935 25.9113 8.82127 25.8841 8.77108L25.0124 7.16988C24.9963 7.14123 24.9747 7.11594 24.9484 7.09547C24.9223 7.07499 24.8921 7.05974 24.8599 7.05057C24.827 7.04102 24.7923 7.03833 24.7582 7.04264C24.724 7.04694 24.6911 7.05818 24.6618 7.0756C23.6832 7.63947 22.4825 8.671 22.548 10.6532C22.6272 13.1763 24.7866 15.1027 27.5938 15.1816H27.7345H27.9267C31.2628 15.0758 33.6718 12.6701 33.6718 9.40808C33.6718 6.41357 31.4253 3.20734 27.2689 3.20734Z" fill="white"/>
<path fill-rule="evenodd" clip-rule="evenodd" d="M51.5816 0.324524H74.0453C75.5957 0.324524 76.8527 1.54545 76.8527 3.05154V14.9988C76.8527 16.5049 75.5957 17.7258 74.0453 17.7258H51.5816C50.0312 17.7258 48.7744 16.5049 48.7744 14.9988V3.05154C48.7744 1.54545 50.0312 0.324524 51.5816 0.324524ZM56.6215 9.78731C58.4956 9.78731 59.8368 8.4594 59.8368 6.59841C59.8368 4.74702 58.4956 3.41142 56.6215 3.41142H53.313C53.2737 3.41142 53.2358 3.42663 53.2081 3.4537C53.1802 3.48076 53.1645 3.51748 53.1645 3.55577V12.3758C53.165 12.4139 53.1807 12.4503 53.2086 12.4773C53.2363 12.5042 53.2739 12.5196 53.313 12.5201H54.5571C54.5967 12.5201 54.6344 12.5049 54.6623 12.4778C54.6902 12.4508 54.7057 12.414 54.7057 12.3758V9.93164C54.7057 9.89337 54.7214 9.85665 54.7493 9.82958C54.7772 9.8025 54.8149 9.78731 54.8545 9.78731H56.6215ZM56.5264 4.75088C57.5447 4.75088 58.2956 5.53223 58.2956 6.59841C58.2956 7.66649 57.5447 8.44592 56.5264 8.44592H54.8545C54.8153 8.44592 54.7778 8.43098 54.75 8.40432C54.7222 8.37768 54.7062 8.34146 54.7057 8.30351V4.89521C54.7062 4.85709 54.7222 4.82067 54.7499 4.7937C54.7776 4.76675 54.8151 4.75138 54.8545 4.75088H56.5264ZM60.2033 10.8285C60.1904 10.5432 60.251 10.2592 60.3798 10.0024C60.5085 9.74568 60.7012 9.52421 60.9404 9.35814C61.4238 9.00595 62.1725 8.82313 63.284 8.78079L64.4627 8.7423V8.40358C64.4627 7.72809 63.9952 7.44133 63.2443 7.44133C62.4936 7.44133 62.02 7.69921 61.9092 8.12069C61.9003 8.15045 61.8815 8.17649 61.8556 8.19464C61.8296 8.21277 61.7983 8.22197 61.7665 8.22076H60.6036C60.5821 8.22128 60.5609 8.21723 60.5414 8.20891C60.5217 8.20059 60.5042 8.18819 60.4901 8.17262C60.4759 8.15702 60.4654 8.13861 60.4593 8.11867C60.4532 8.09872 60.4518 8.07774 60.455 8.05718C60.6293 7.05642 61.4812 6.29626 63.2979 6.29626C65.2275 6.29626 65.9227 7.16806 65.9227 8.83275V12.37C65.9231 12.3891 65.9195 12.4081 65.912 12.4258C65.9047 12.4435 65.8938 12.4597 65.88 12.4733C65.8662 12.4869 65.8498 12.4977 65.8316 12.5051C65.8133 12.5125 65.7938 12.5162 65.7742 12.5162H64.5994C64.5798 12.5162 64.5603 12.5125 64.542 12.5051C64.524 12.4977 64.5075 12.4869 64.4936 12.4733C64.4798 12.4597 64.4689 12.4435 64.4616 12.4258C64.4543 12.4081 64.4505 12.3891 64.4509 12.37V12.1063C64.4528 12.0832 64.4471 12.0601 64.4344 12.0404C64.4217 12.0207 64.403 12.0055 64.3806 11.9971C64.3583 11.9886 64.3339 11.9874 64.3109 11.9936C64.2878 11.9997 64.2674 12.013 64.2528 12.0313C63.902 12.4027 63.3315 12.6721 62.4223 12.6721C61.089 12.676 60.2033 11.9986 60.2033 10.8285ZM64.4627 10.0586V9.78538L62.9373 9.86235C62.133 9.90276 61.6634 10.228 61.6634 10.7746C61.6634 11.2692 62.0933 11.5444 62.8422 11.5444C63.8605 11.5444 64.4627 11.0093 64.4627 10.0606V10.0586ZM67.1036 14.1617V15.1913C67.1018 15.2246 67.1114 15.2575 67.1313 15.2847C67.1509 15.312 67.1795 15.3319 67.2124 15.3414C67.4196 15.3963 67.6338 15.4215 67.8485 15.4165C68.9875 15.4165 70.0277 15.0123 70.6221 13.4381L73.2371 6.6619C73.2446 6.64009 73.2465 6.61687 73.2431 6.59413C73.2396 6.5714 73.2306 6.54978 73.217 6.53102C73.2033 6.51228 73.1852 6.49693 73.1643 6.48623C73.1434 6.47553 73.1201 6.46979 73.0964 6.46946H71.878C71.8464 6.4692 71.8154 6.47878 71.7899 6.49677C71.7641 6.51478 71.7452 6.54026 71.7353 6.56952L70.2951 10.8612C70.2842 10.8893 70.2645 10.9135 70.2391 10.9306C70.2136 10.9477 70.1834 10.9568 70.1524 10.9568C70.1215 10.9568 70.0913 10.9477 70.0657 10.9306C70.0403 10.9135 70.0209 10.8893 70.0098 10.8612L68.3496 6.55798C68.3386 6.53041 68.3193 6.50671 68.2942 6.4899C68.2692 6.47309 68.2395 6.46397 68.209 6.46369H67.0203C66.9967 6.46402 66.9734 6.46977 66.9525 6.48047C66.9316 6.49117 66.9135 6.50652 66.8998 6.52526C66.886 6.544 66.8771 6.56562 66.8737 6.58837C66.8701 6.6111 66.8722 6.63432 66.8797 6.65613L69.3243 12.7568C69.3363 12.7885 69.3363 12.8233 69.3243 12.855L69.2471 13.0917C69.157 13.3853 68.968 13.6411 68.7104 13.818C68.453 13.9949 68.1417 14.0827 67.8267 14.0674C67.6438 14.0672 67.4615 14.0504 67.2818 14.0174C67.26 14.0134 67.2377 14.0141 67.2162 14.0196C67.1947 14.025 67.1747 14.0349 67.1577 14.0487C67.1408 14.0625 67.127 14.0798 67.1177 14.0993C67.1082 14.1188 67.1034 14.1402 67.1036 14.1617Z" fill="white"/>
</g>
<defs>
<clipPath id="clip0_185_3667">
<rect width="77.5" height="17.7143" fill="white" transform="translate(0.25 0.142883)"/>
</clipPath>
</defs>
</svg>
