<svg width="16" height="17" viewBox="0 0 16 17" fill="none" xmlns="http://www.w3.org/2000/svg">
<path d="M15.6135 12.7005C15.555 12.6771 15.5024 12.6595 15.4556 12.6361C14.1395 11.9108 13.2504 10.9983 12.7356 9.85183C12.4373 9.18501 12.5426 8.79895 13.11 8.51234C13.4376 8.34855 13.771 8.12043 14.1512 7.80457C14.3325 7.65248 14.7127 7.34247 14.467 6.88037C14.2155 6.41828 13.7827 6.48262 13.4785 6.57036C13.227 6.6464 12.9813 6.72829 12.759 6.82773C12.5835 6.90377 12.4666 6.92132 12.4081 6.88037C12.3496 6.83943 12.3262 6.72244 12.3379 6.53526C12.373 5.99712 12.3671 5.45899 12.3554 4.86235C12.3262 2.97887 11.3493 1.55163 9.68229 0.949152C7.869 0.294027 5.82173 0.767823 4.58752 2.12487C3.66332 3.14265 3.57558 4.33591 3.61652 5.47068C3.61652 5.61692 3.63408 5.77485 3.65162 5.93278C3.68672 6.26034 3.72181 6.59961 3.58728 6.78093C3.42349 6.99151 3.21877 6.90377 2.90291 6.73999C2.75082 6.66395 2.59875 6.58206 2.44082 6.55866C2.08986 6.50017 1.73304 6.47677 1.51076 6.86282C1.26509 7.28983 1.55757 7.59984 1.79739 7.79287C2.04306 7.99175 2.31213 8.16723 2.57535 8.33686C2.65724 8.3895 2.74497 8.44799 2.82686 8.50064C3.51708 8.95689 3.56389 9.12652 3.21878 9.88693C2.79178 10.8345 2.08985 11.6183 1.01357 12.3495C0.908282 12.4197 0.762052 12.4782 0.621668 12.5308C0.305804 12.6537 -0.0568545 12.7999 0.00748812 13.145C0.0835294 13.5428 0.563172 13.6656 0.984324 13.7709C1.08376 13.7943 1.18321 13.8177 1.27095 13.8469C1.32359 13.8645 1.38209 13.8762 1.43473 13.8937C1.7506 13.9756 2.05476 14.0517 2.08986 14.4319C2.14835 15.0226 2.57534 15.087 2.94385 15.0694C3.90899 15.0343 4.85074 15.3151 5.90362 15.9527C6.58799 16.368 7.28991 16.5727 7.98598 16.5727C8.64111 16.5727 9.29039 16.3914 9.91626 16.0287C10.7878 15.5257 11.8524 15.0109 13.1334 15.0636C13.5721 15.0811 13.8236 14.8881 13.8529 14.5196C13.8821 14.1335 14.1278 14.0224 14.4787 13.9113C14.5723 13.882 14.6659 13.8528 14.7595 13.8235C14.9701 13.7592 15.1923 13.6948 15.3971 13.6013C15.438 13.5837 15.4848 13.5662 15.5375 13.5486C15.7364 13.4784 15.9879 13.3907 15.9996 13.1041C16.0113 12.8408 15.7831 12.759 15.6135 12.7005Z" fill="white"/>
</svg>
