<svg width="16" height="16" viewBox="0 0 16 16" fill="none" xmlns="http://www.w3.org/2000/svg">
<path d="M1.33301 6.99999V13.6667H4.66634V6.99999H1.33301Z" stroke="black" stroke-linecap="round" stroke-linejoin="round"/>
<path d="M9.33366 2.33332L9.68721 1.97977C9.59323 1.88579 9.4657 1.83309 9.33279 1.83332C9.19988 1.83355 9.07254 1.88669 8.97888 1.981L9.33366 2.33332ZM4.66699 7.03247L4.31221 6.68014C4.2192 6.77381 4.16699 6.90046 4.16699 7.03247H4.66699ZM12.667 13.6667L12.667 14.1667L13.0385 14.1667L13.1457 13.811L12.667 13.6667ZM4.66699 13.6667H4.16699C4.16699 13.9428 4.39085 14.1667 4.66699 14.1667L4.66699 13.6667ZM14.667 7.03247L15.1457 7.17679C15.1914 7.02535 15.1627 6.86124 15.0683 6.73427C14.974 6.60731 14.8252 6.53247 14.667 6.53247V7.03247ZM9.66699 7.03247L9.1877 6.89007L8.99684 7.53247H9.66699V7.03247ZM10.667 3.66665L11.1463 3.80905C11.1985 3.63319 11.1503 3.44283 11.0205 3.3131L10.667 3.66665ZM8.97888 1.981L4.31221 6.68014L5.02177 7.38479L9.68844 2.68565L8.97888 1.981ZM12.667 13.1667L4.66699 13.1667L4.66699 14.1667L12.667 14.1667L12.667 13.1667ZM13.1457 13.811L15.1457 7.17679L14.1883 6.88815L12.1883 13.5223L13.1457 13.811ZM14.667 6.53247H9.66699V7.53247H14.667V6.53247ZM10.1463 7.17487L11.1463 3.80905L10.1877 3.52425L9.1877 6.89007L10.1463 7.17487ZM11.0205 3.3131L9.68721 1.97977L8.98011 2.68687L10.3134 4.02021L11.0205 3.3131ZM5.16699 13.6667V7.03247H4.16699V13.6667H5.16699Z" fill="black"/>
</svg>
